<?xml version="1.0" standalone="no"?>
<!DOCTYPE svg PUBLIC "-//W3C//DTD SVG 20010904//EN"
 "http://www.w3.org/TR/2001/REC-SVG-20010904/DTD/svg10.dtd">
<svg version="1.0" xmlns="http://www.w3.org/2000/svg"
 width="1164.000000pt" height="1164.000000pt" viewBox="0 0 1164.000000 1164.000000"
 preserveAspectRatio="xMidYMid meet">
<metadata>
Created by potrace 1.11, written by Peter Selinger 2001-2013
</metadata>
<g transform="translate(0.000000,1164.000000) scale(0.100000,-0.100000)"
fill="#000000" stroke="none">
<path d="M5442 10889 c-9 -4 -61 -10 -114 -14 -54 -4 -98 -10 -98 -15 0 -4
-17 -7 -37 -5 -21 1 -43 -1 -48 -6 -6 -4 -28 -8 -50 -8 -51 -1 -135 -11 -155
-17 -13 -5 -42 -8 -142 -16 -16 -1 -28 -5 -28 -9 0 -4 -8 -8 -17 -8 -10 1 -45
-7 -78 -16 -33 -10 -67 -19 -75 -20 -8 -2 -15 -4 -15 -5 0 -1 -9 -3 -20 -5
-11 -2 -47 -11 -80 -20 -33 -9 -67 -16 -75 -17 -8 0 -20 -5 -27 -10 -7 -5 -16
-7 -22 -4 -5 3 -11 3 -13 -2 -1 -4 -37 -16 -78 -25 -41 -9 -80 -18 -87 -20 -7
-2 -16 -6 -19 -10 -4 -4 -13 -7 -19 -7 -7 0 -30 -8 -51 -17 -22 -9 -41 -17
-44 -18 -3 -1 -22 -9 -44 -18 -21 -9 -45 -17 -52 -17 -8 0 -14 -4 -14 -10 0
-5 -3 -9 -7 -8 -5 0 -17 -2 -28 -6 -11 -4 -54 -20 -95 -36 -41 -15 -85 -31
-97 -35 -13 -3 -23 -11 -23 -16 0 -6 -5 -7 -10 -4 -6 4 -16 3 -23 -3 -7 -5
-36 -17 -64 -27 -29 -11 -53 -23 -53 -27 0 -4 -7 -8 -15 -8 -8 0 -15 -4 -15
-9 0 -7 -33 -21 -48 -20 -1 0 -10 -7 -18 -16 -9 -8 -22 -15 -30 -15 -8 0 -14
-3 -14 -8 0 -4 -26 -20 -57 -35 -32 -16 -79 -41 -105 -57 -27 -16 -48 -26 -48
-22 0 4 -4 2 -8 -4 -8 -12 -81 -52 -96 -52 -5 0 -13 -7 -18 -16 -5 -9 -15 -16
-22 -16 -7 0 -25 -9 -40 -21 -14 -11 -26 -17 -26 -13 0 4 -9 -5 -21 -20 -11
-14 -25 -24 -30 -21 -5 4 -9 1 -9 -5 0 -6 -8 -14 -18 -18 -20 -8 -173 -122
-184 -137 -4 -5 -8 -6 -8 -1 0 5 -11 -3 -25 -18 -14 -15 -25 -24 -25 -21 0 6
-63 -39 -88 -63 -8 -6 -23 -17 -34 -23 -27 -14 -65 -48 -164 -142 -45 -44 -84
-79 -87 -79 -5 0 -177 -163 -247 -234 -71 -71 -116 -124 -112 -129 3 -3 -7
-14 -21 -26 -15 -11 -27 -25 -27 -30 0 -5 -15 -23 -32 -40 -18 -17 -33 -34
-33 -38 0 -4 -12 -21 -27 -37 -14 -16 -56 -65 -92 -109 -36 -44 -75 -89 -86
-100 -11 -12 -20 -26 -20 -33 0 -7 -5 -12 -12 -12 -6 0 -9 -3 -5 -6 3 -4 -5
-21 -18 -39 -14 -17 -25 -37 -25 -43 0 -7 -5 -12 -11 -12 -5 0 -7 -4 -4 -10 3
-5 3 -10 -2 -10 -10 -1 -59 -80 -56 -91 2 -5 -2 -9 -7 -9 -6 0 -15 -11 -20
-25 -5 -14 -15 -25 -21 -25 -7 0 -10 -3 -7 -6 6 -5 -47 -93 -74 -123 -7 -8
-13 -20 -14 -27 -2 -13 -44 -75 -57 -85 -4 -3 -7 -10 -5 -15 2 -8 -51 -123
-99 -216 -8 -16 -11 -28 -6 -28 4 0 4 -4 -2 -8 -17 -12 -90 -168 -85 -181 1
-2 -2 -7 -7 -10 -14 -10 -61 -112 -75 -163 -6 -27 -16 -48 -20 -48 -4 0 -5 -6
-2 -14 3 -8 1 -17 -5 -20 -6 -4 -8 -13 -4 -21 3 -8 1 -15 -5 -15 -6 0 -13 -17
-17 -38 -3 -22 -13 -51 -21 -66 -7 -16 -11 -32 -8 -37 3 -5 1 -9 -4 -9 -4 0
-14 -24 -21 -52 -8 -29 -19 -59 -25 -67 -6 -8 -10 -17 -9 -20 4 -8 -25 -101
-38 -124 -5 -10 -7 -22 -4 -27 4 -6 2 -10 -3 -10 -6 0 -9 -13 -8 -30 1 -16 -1
-30 -5 -30 -8 0 -19 -62 -19 -102 0 -16 -4 -28 -9 -28 -6 0 -8 -13 -6 -30 2
-16 -1 -30 -6 -30 -5 0 -9 -12 -8 -27 1 -16 -6 -62 -16 -103 -9 -41 -17 -87
-17 -102 0 -16 -4 -28 -9 -28 -4 0 -8 -15 -8 -32 0 -18 -4 -58 -10 -89 -11
-57 -17 -143 -23 -314 -2 -49 -6 -94 -9 -100 -4 -5 -6 -48 -5 -93 0 -46 -2
-86 -6 -89 -10 -5 -11 -107 -1 -116 6 -7 10 -84 16 -295 1 -50 6 -92 10 -92 5
0 7 -45 5 -100 -2 -55 0 -100 5 -100 4 0 7 -15 7 -34 0 -19 4 -37 10 -41 5 -3
7 -12 3 -20 -3 -8 -2 -23 3 -32 4 -10 9 -27 10 -38 15 -103 37 -214 45 -230 5
-11 7 -30 5 -43 -3 -12 -1 -22 3 -22 4 0 8 -6 8 -12 1 -11 20 -125 26 -153 2
-5 6 -16 10 -22 5 -7 5 -13 1 -13 -3 0 -1 -7 6 -15 6 -8 9 -19 6 -24 -4 -5 -2
-12 4 -16 5 -3 10 -12 10 -20 0 -8 5 -26 12 -42 6 -15 12 -31 13 -35 2 -5 4
-11 5 -15 2 -5 4 -12 5 -18 6 -33 29 -102 37 -112 6 -7 7 -13 3 -13 -4 0 -2
-6 4 -14 6 -8 11 -18 10 -22 -1 -5 0 -16 4 -24 14 -37 31 -96 29 -102 -1 -5 3
-8 9 -8 6 0 9 -7 6 -15 -4 -8 -2 -17 3 -20 6 -4 10 -13 10 -22 0 -9 16 -50 36
-91 20 -41 37 -80 38 -86 1 -6 13 -31 26 -56 13 -25 25 -47 25 -50 0 -3 11
-24 23 -47 12 -23 22 -49 22 -58 0 -8 5 -15 11 -15 5 0 7 -4 4 -10 -3 -5 -1
-10 4 -10 6 0 11 -5 11 -11 0 -6 11 -33 24 -59 13 -27 22 -51 19 -54 -4 -3 -1
-6 5 -6 7 0 12 -9 12 -19 0 -11 7 -27 16 -35 8 -9 13 -16 9 -16 -3 0 3 -13 14
-29 12 -16 21 -32 21 -35 0 -4 4 -12 10 -19 20 -24 80 -119 80 -126 0 -5 9
-16 20 -26 11 -10 17 -21 15 -25 -3 -4 2 -13 10 -20 8 -7 15 -19 15 -26 0 -8
4 -14 10 -14 5 0 16 -16 24 -35 8 -19 20 -35 26 -35 6 0 9 -4 6 -9 -3 -4 3
-19 14 -31 11 -13 20 -29 20 -37 0 -7 7 -16 15 -19 8 -4 15 -11 15 -17 0 -5
11 -25 26 -44 14 -18 23 -33 21 -33 -5 0 45 -58 90 -107 13 -13 23 -27 23 -32
0 -4 10 -17 22 -28 13 -11 45 -49 73 -84 27 -35 55 -68 62 -72 7 -4 13 -12 13
-17 0 -6 13 -23 30 -38 16 -16 30 -33 30 -37 0 -11 213 -225 223 -225 5 0 44
-36 86 -80 43 -44 82 -80 86 -80 4 0 35 -27 69 -60 67 -67 160 -140 176 -140
5 0 10 -5 10 -10 0 -6 11 -15 25 -20 14 -5 28 -17 31 -25 4 -8 11 -15 16 -15
9 0 140 -93 194 -138 11 -9 37 -26 57 -37 20 -11 37 -23 37 -27 0 -4 28 -23
63 -43 34 -20 105 -61 157 -92 96 -56 154 -88 258 -144 118 -64 149 -79 242
-119 52 -23 109 -48 125 -55 17 -7 62 -25 100 -40 39 -15 84 -33 100 -40 145
-63 664 -205 841 -230 11 -2 45 -8 75 -13 61 -13 174 -28 327 -46 227 -27 773
-28 1002 -1 19 2 60 7 90 10 30 3 66 8 80 10 14 3 45 7 70 10 25 3 56 7 70 10
50 10 75 15 115 20 194 28 707 176 934 271 116 49 312 133 331 143 211 111
404 219 510 286 25 16 45 27 45 24 0 -2 7 2 15 9 13 11 303 220 354 254 10 7
26 20 35 29 9 9 21 18 27 20 28 10 158 122 285 245 43 41 80 74 83 74 6 0 130
118 211 199 40 40 65 70 65 79 0 5 10 18 22 29 13 11 45 49 73 84 27 35 55 68
62 72 7 4 13 12 13 18 0 5 11 20 25 33 14 13 25 27 25 31 0 4 11 20 25 34 14
14 41 46 60 71 19 25 41 52 49 60 8 8 20 27 27 43 7 15 16 27 21 27 4 0 8 5 8
11 0 6 9 23 20 39 11 15 17 30 13 34 -3 3 -1 6 6 6 6 0 16 11 21 25 5 14 15
25 21 25 7 0 9 3 6 6 -4 4 2 19 13 34 11 16 20 33 20 39 0 6 4 11 9 11 5 0 16
15 24 33 9 17 27 47 41 66 14 19 26 38 26 41 0 4 20 37 44 74 24 36 49 86 56
111 7 25 17 45 21 45 5 0 8 3 7 8 -1 4 17 45 40 91 23 47 42 91 42 98 0 7 5
13 10 13 6 0 9 3 8 8 -2 10 35 85 47 94 6 4 6 8 1 8 -5 0 -3 7 4 15 7 8 9 15
6 15 -4 0 2 9 13 21 11 12 17 27 15 34 -3 7 0 16 5 20 6 3 9 11 6 16 -4 5 -2
9 3 9 4 0 14 24 21 53 8 28 18 58 24 65 5 6 6 12 2 12 -4 0 -2 6 4 14 6 8 11
18 10 22 -1 5 3 22 9 37 7 16 12 34 12 40 0 7 6 23 13 37 7 14 19 48 26 75 8
28 20 64 27 80 11 27 47 138 61 190 12 45 34 172 34 193 -1 12 3 22 8 22 5 0
9 12 9 28 1 35 31 212 39 232 4 8 7 24 8 35 1 11 4 27 8 35 7 19 8 26 13 135
3 50 7 97 11 105 3 8 6 53 5 100 0 47 3 90 7 95 4 6 7 50 6 98 0 49 2 90 6 93
9 5 10 182 0 188 -4 3 -6 47 -6 98 1 51 -1 98 -4 103 -3 6 -7 48 -7 94 -1 46
-6 86 -10 90 -5 3 -10 57 -10 120 -1 64 -6 116 -12 120 -5 3 -9 21 -7 39 1 17
-2 32 -7 32 -6 0 -8 14 -6 30 3 17 1 30 -3 30 -4 0 -10 28 -14 63 -4 34 -10
66 -13 72 -3 5 -7 21 -9 35 -1 14 -9 59 -18 100 -9 41 -16 85 -16 98 1 12 -4
22 -9 22 -6 0 -8 13 -5 30 3 17 2 30 -3 30 -5 0 -14 24 -21 53 -8 28 -18 63
-24 77 -6 14 -11 30 -13 35 -27 95 -39 131 -47 136 -5 3 -8 10 -8 15 1 9 -15
64 -26 94 -4 8 -7 18 -8 23 -2 4 -4 10 -5 15 -1 4 -3 12 -4 17 -1 6 -7 23 -14
38 -7 16 -12 35 -12 43 0 8 -4 14 -9 14 -5 0 -7 9 -4 20 3 12 0 20 -6 20 -7 0
-9 5 -6 10 3 6 3 10 -2 10 -6 0 -45 79 -48 100 -3 13 -41 85 -47 88 -4 2 -4
10 -1 18 3 8 1 14 -4 14 -9 0 -45 65 -47 85 -2 18 -89 190 -100 197 -6 4 -7 8
-2 8 5 0 3 7 -4 15 -7 8 -10 15 -6 15 4 0 -10 26 -30 58 -21 31 -44 69 -51 85
-8 15 -19 27 -24 27 -5 0 -9 6 -9 14 0 7 -9 25 -21 40 -11 14 -17 26 -12 26 4
0 0 5 -9 11 -10 5 -18 16 -18 24 0 7 -6 20 -12 27 -17 18 -78 107 -78 114 0 2
-16 28 -35 57 -19 28 -35 55 -35 59 0 4 -10 18 -22 31 -13 14 -34 39 -48 56
-14 18 -40 49 -58 71 -19 21 -32 41 -30 43 1 3 -9 15 -24 27 -16 12 -28 26
-28 31 0 5 -17 25 -37 44 -20 19 -34 35 -29 35 4 0 1 6 -6 13 -7 8 -38 44 -68
81 -30 37 -86 97 -125 134 -209 201 -242 232 -248 232 -4 0 -42 36 -84 80 -43
44 -82 80 -88 80 -6 0 -17 9 -25 20 -8 11 -19 20 -24 20 -8 0 -114 76 -126 91
-3 3 -18 13 -35 22 -16 8 -47 31 -69 51 -21 20 -45 36 -52 36 -8 0 -14 5 -14
10 0 6 -7 10 -15 10 -8 0 -19 9 -25 20 -6 11 -17 20 -25 20 -8 0 -19 8 -24 18
-6 9 -11 13 -11 9 0 -5 -20 8 -43 27 -24 20 -47 33 -50 29 -4 -3 -7 -1 -7 5 0
7 -7 12 -15 12 -7 0 -18 6 -22 14 -4 8 -10 14 -13 14 -10 0 -85 37 -98 49 -7
6 -28 17 -47 24 -19 7 -35 17 -35 22 0 4 -4 5 -10 2 -5 -3 -10 -1 -10 4 0 9
-74 47 -76 39 0 -2 -16 9 -35 23 -36 27 -69 43 -81 41 -5 -1 -8 2 -8 7 0 5
-13 14 -30 21 -16 7 -30 17 -30 22 0 5 -4 7 -9 3 -5 -3 -12 -1 -16 5 -3 5 -24
14 -45 20 -22 6 -40 15 -40 20 0 5 -9 7 -20 5 -11 -2 -20 0 -20 4 0 5 -20 14
-45 21 -25 7 -45 17 -45 22 0 6 -6 8 -13 5 -7 -3 -21 1 -32 9 -10 8 -27 14
-37 14 -10 0 -18 5 -18 10 0 6 -3 9 -7 9 -5 -1 -10 0 -13 1 -10 3 -45 11 -57
12 -7 1 -13 4 -13 8 0 4 -19 13 -42 19 -24 7 -47 17 -53 21 -13 10 -118 45
-127 42 -5 -1 -8 2 -8 7 0 6 -8 10 -17 9 -10 0 -45 8 -78 17 -33 10 -68 18
-77 19 -10 0 -18 4 -18 8 0 4 -8 7 -17 7 -26 0 -127 23 -133 30 -3 3 -14 7
-25 8 -21 2 -27 3 -115 29 -30 8 -64 17 -75 19 -11 1 -20 4 -20 5 0 3 -28 6
-150 21 -49 5 -97 13 -105 16 -8 3 -33 6 -55 7 -22 1 -44 4 -50 7 -5 3 -29 5
-52 4 -24 0 -43 3 -43 7 0 5 -19 9 -42 9 -52 -1 -138 8 -158 16 -21 8 -637 9
-658 2z m-3747 -2159 c-3 -5 -12 -10 -18 -10 -7 0 -6 4 3 10 19 12 23 12 15 0z"/>
</g>
</svg>
